<?xml version="1.0" encoding="UTF-8"?>
<svg xmlns="http://www.w3.org/2000/svg" xmlns:xlink="http://www.w3.org/1999/xlink" viewBox="0 0 240 240">
  <defs>
    <style>
      .cls-1 {
        fill: #212c49;
      }

      .cls-1, .cls-2, .cls-3, .cls-4, .cls-5 {
        stroke-width: 0px;
      }

      .cls-6 {
        clip-path: url(#clippath);
      }

      .cls-2, .cls-7, .cls-8 {
        fill: none;
      }

      .cls-3 {
        fill: url(#_名称未設定グラデーション_389);
      }

      .cls-9 {
        clip-path: url(#clippath-1);
      }

      .cls-7 {
        stroke-width: 13px;
      }

      .cls-7, .cls-8, .cls-10 {
        stroke: #212c49;
        stroke-linecap: round;
        stroke-linejoin: round;
      }

      .cls-8 {
        stroke-width: 8px;
      }

      .cls-10 {
        fill: #e271aa;
        stroke-width: 10px;
      }

      .cls-4 {
        fill: #ffb8e2;
      }

      .cls-11 {
        font-family: NotoSansJP-Thin, 'Noto Sans JP';
        font-size: 20px;
        font-variation-settings: 'wght' 100;
        font-weight: 200;
      }

      .cls-11, .cls-5 {
        fill: #fff;
      }

      .cls-12 {
        isolation: isolate;
      }

      .cls-13 {
        mix-blend-mode: multiply;
        opacity: .8;
      }
    </style>
    <clipPath id="clippath">
      <rect class="cls-2" x="0" y="64" width="195" height="176"/>
    </clipPath>
    <clipPath id="clippath-1">
      <rect class="cls-2" y="18" width="222" height="222"/>
    </clipPath>
    <radialGradient id="_名称未設定グラデーション_389" data-name="名称未設定グラデーション 389" cx="-936.25" cy="-2109.58" fx="-936.25" fy="-2109.58" r="22.36" gradientTransform="translate(4709.27 3996.58) rotate(1.34) scale(4.91 1.75) skewX(.91)" gradientUnits="userSpaceOnUse">
      <stop offset="0" stop-color="#ff3f8f"/>
      <stop offset=".09" stop-color="rgba(255, 61, 145, .94)" stop-opacity=".94"/>
      <stop offset=".27" stop-color="rgba(255, 58, 152, .79)" stop-opacity=".79"/>
      <stop offset=".52" stop-color="rgba(255, 53, 164, .55)" stop-opacity=".55"/>
      <stop offset=".81" stop-color="rgba(255, 46, 179, .22)" stop-opacity=".22"/>
      <stop offset="1" stop-color="#ff2abe" stop-opacity="0"/>
    </radialGradient>
  </defs>
  <g class="cls-12">
    <g id="_レイヤー_1" data-name="レイヤー 1">
      <g class="cls-6">
        <path class="cls-4" d="M73.23,290.84c-59.88,0-108.42-48.54-108.42-108.42S13.35,74,73.23,74s108.42,48.54,108.42,108.42-48.54,108.42-108.42,108.42Z"/>
      </g>
      <g class="cls-9">
        <g>
          <path class="cls-7" d="M39.87,264.61c-56.82,0-102.89-46.06-102.89-102.88S-16.95,58.84,39.87,58.84s102.88,46.06,102.88,102.89-46.06,102.88-102.88,102.88Z"/>
          <g class="cls-13">
            <path class="cls-3" d="M-92.97,187.34c2.59,23.61,63.39,42.81,135.73,42.79,72.22.02,128.79-19.13,126.07-42.91-2.43-23.55-63.22-42.75-135.5-42.71-72.29.01-128.88,19.15-126.3,42.83Z"/>
          </g>
          <path class="cls-2" d="M19.67,264.24c-56.82,0-102.89-46.06-102.89-102.88S-37.15,58.47,19.67,58.47s102.88,46.06,102.88,102.89-46.06,102.88-102.88,102.88Z"/>
          <g>
            <circle class="cls-1" cx="-1.2" cy="157.02" r="30"/>
            <circle class="cls-5" cx="-4.83" cy="150.24" r="16.37"/>
            <circle class="cls-5" cx="16.36" cy="166.91" r="5.87"/>
            <circle class="cls-5" cx="-.6" cy="174.74" r="5.87"/>
          </g>
        </g>
      </g>
      <g>
        <circle class="cls-1" cx="82" cy="157.5" r="30"/>
        <circle class="cls-5" cx="78.37" cy="150.72" r="16.37"/>
        <circle class="cls-5" cx="99.56" cy="167.38" r="5.87"/>
        <circle class="cls-5" cx="82.6" cy="175.21" r="5.87"/>
      </g>
      <path class="cls-8" d="M94.74,135.35s8.26,4.65,17.26-6.85"/>
      <circle class="cls-1" cx="194.5" cy="139.5" r="6.5"/>
      <circle class="cls-1" cx="181.5" cy="165.5" r="6.5"/>
      <circle class="cls-1" cx="160.5" cy="186.5" r="6.5"/>
      <path class="cls-10" d="M166.14,49.17s-28.67-14.6-38.71,1.55c-10.04,16.14,0,35.31,30.98,37.95,19.43,1.66,39.47-.16,41.64,29.98,0,0,12.08-42.05,8.87-70.13-2.92-25.52-23.71-46.16-41.68-37.88-22.87,10.55-1.11,38.53-1.11,38.53Z"/>
      <text class="cls-11" transform="translate(80.25 -17.19)"><tspan x="0" y="0">トゥンク</tspan></text>
      <line class="cls-8" x1="95" y1="198" x2="89" y2="215"/>
      <line class="cls-8" x1="111" y1="198" x2="105" y2="215"/>
    </g>
  </g>
</svg>