<?xml version="1.0" encoding="UTF-8"?>
<svg id="_レイヤー_1" data-name="レイヤー 1" xmlns="http://www.w3.org/2000/svg" viewBox="0 0 240 240">
  <defs>
    <style>
      .cls-1 {
        fill: #212c49;
      }

      .cls-1, .cls-2, .cls-3, .cls-4, .cls-5 {
        stroke-width: 0px;
      }

      .cls-2 {
        fill: #80b1dd;
      }

      .cls-3 {
        fill: #e271aa;
      }

      .cls-6 {
        stroke-width: 7px;
      }

      .cls-6, .cls-7, .cls-8 {
        fill: none;
        stroke: #212c49;
        stroke-linecap: round;
      }

      .cls-6, .cls-8 {
        stroke-miterlimit: 10;
      }

      .cls-4 {
        fill: #f4e08c;
      }

      .cls-7 {
        stroke-linejoin: round;
        stroke-width: 13px;
      }

      .cls-9 {
        font-family: NotoSansJP-Thin, 'Noto Sans JP';
        font-size: 20px;
        font-variation-settings: 'wght' 100;
        font-weight: 200;
      }

      .cls-9, .cls-5 {
        fill: #fff;
      }

      .cls-8 {
        stroke-width: 10px;
      }
    </style>
  </defs>
  <path class="cls-4" d="M137.12,240c-56.82,0-102.89-46.06-102.89-102.88s46.06-102.89,102.89-102.89,102.88,46.06,102.88,102.89-46.06,102.88-102.88,102.88Z"/>
  <path class="cls-7" d="M120,222.88c-56.82,0-102.89-46.06-102.89-102.88S63.18,17.12,120,17.12s102.88,46.06,102.88,102.89-46.06,102.88-102.88,102.88Z"/>
  <path class="cls-3" d="M201.98,154.69c-.25,6.93-10.59,12.21-23.09,11.77-12.48-.43-22.43-6.4-22.16-13.37.22-6.91,10.56-12.2,23.05-11.75,12.5.44,22.44,6.4,22.2,13.35Z"/>
  <path class="cls-3" d="M38.08,154.06c.31,6.93,10.71,12.3,23.21,11.97,12.48-.32,22.36-6.21,22.03-13.19-.28-6.91-10.68-12.28-23.17-11.95-12.49.33-22.38,6.21-22.07,13.16Z"/>
  <path class="cls-8" d="M147.13,163.28c.5.5-2.5,23.5-26.5,23.5s-28-24-27.5-23.5"/>
  <g>
    <circle class="cls-1" cx="159.13" cy="111.78" r="30"/>
    <circle class="cls-5" cx="155.5" cy="104.99" r="16.37"/>
    <circle class="cls-5" cx="176.69" cy="121.66" r="5.87"/>
    <circle class="cls-5" cx="159.74" cy="129.49" r="5.87"/>
  </g>
  <g>
    <circle class="cls-1" cx="83.13" cy="111.78" r="30"/>
    <circle class="cls-5" cx="79.5" cy="104.99" r="16.37"/>
    <circle class="cls-5" cx="100.69" cy="121.66" r="5.87"/>
    <circle class="cls-5" cx="83.74" cy="129.49" r="5.87"/>
  </g>
  <ellipse class="cls-2" cx="79.63" cy="143.28" rx="21.5" ry="8"/>
  <ellipse class="cls-2" cx="162.63" cy="143.28" rx="21.5" ry="8"/>
  <path class="cls-6" d="M100.24,54.78s-8.75,13.37-28.8,15"/>
  <path class="cls-6" d="M138.83,54.78s8.75,13.37,28.8,15"/>
  <text class="cls-9" transform="translate(100.25 -14.19)"><tspan x="0" y="0">尊い</tspan></text>
</svg>