<svg xmlns="http://www.w3.org/2000/svg" width="42.91" height="218.091" viewBox="0 0 42.91 218.091">
  <defs>
    <style>
      .cls-1 {
        fill: #231815;
        fill-rule: evenodd;
      }
    </style>
  </defs>
  <path id="vanced" class="cls-1" d="M1486.36,933.2v4.922l30.38,12.933v-7.726l-17.91-7.668,17.91-7.668v-7.783Zm0,45.266v7.612h30.38v-7.612h-3.31a13.075,13.075,0,0,0,4.12-9.556c0-7.9-6.53-14.306-16.03-14.306-9.33,0-15.96,6.752-15.96,14.478a12.631,12.631,0,0,0,4,9.384h-3.2Zm24.2-8.011c0,4.807-3.6,8.355-8.92,8.355-5.55,0-9.1-3.663-9.1-8.355,0-4.75,3.83-8.183,9.04-8.183C1506.56,962.27,1510.56,965.417,1510.56,970.453Zm6.18,33.477v-7.61h-30.38v7.61h12.93c3.15,0,5.9-.06,8.36,1.49a5.973,5.973,0,0,1,2.91,5.15c0,4.63-3.83,5.15-9.84,5.15h-14.36v7.61h20.77c6.52,0,10.42-4.75,10.42-10.42,0-3.37-1.43-6.06-3.9-8.98h3.09Zm-20.71,52.42a9.653,9.653,0,0,1-3.49-7.95c0-5.61,3.66-9.22,8.81-9.22,5.27,0,9.21,3.72,9.21,9.56a9.551,9.551,0,0,1-3.43,7.61l3.49,6.35c4.47-3.03,6.93-8.07,6.93-14.02,0-10.07-6.99-17.17-16.08-17.17-8.87,0-15.91,6.7-15.91,17.06,0,5.95,2.11,10.53,6.35,13.79Zm-0.74,35.59a9.788,9.788,0,0,1-2.98-7.55c0-4.35,2.52-7.78,7.04-8.53v24.5c0.68,0,1.03.05,1.71,0.05,9.62,0,16.49-6.52,16.49-16.13,0-9.79-7.67-15.8-15.97-15.8-8.93,0-16.02,6.24-16.02,15.91,0,6.41,2.06,10.7,6.69,13.96Zm10.07-15.73a8.292,8.292,0,0,1,5.72,8.18c0,4.06-2.18,7.33-5.72,8.36v-16.54Zm-19,54.48v7.61h42.12v-7.61h-15.05a13.094,13.094,0,0,0,4.12-9.56c0-7.9-6.53-14.31-16.03-14.31-9.33,0-15.96,6.76-15.96,14.48a12.636,12.636,0,0,0,4,9.39h-3.2Zm24.2-8.01c0,4.8-3.6,8.35-8.92,8.35-5.55,0-9.1-3.66-9.1-8.35,0-4.75,3.83-8.19,9.04-8.19C1506.56,1114.49,1510.56,1117.64,1510.56,1122.68Z" transform="translate(-1485.56 -920.219)"/>
</svg>
